<mxfile host="app.diagrams.net" modified="2021-05-27T16:20:06.448Z" agent="5.0 (Windows NT 10.0; Win64; x64) AppleWebKit/537.36 (KHTML, like Gecko) Chrome/90.0.4430.212 Safari/537.36" etag="Iep7tfea_l_fBbKioIPB" version="14.5.8" type="github">
  <diagram id="NkT8_XI6u8hQFKwCqMvT" name="Page-1">
    <mxGraphModel dx="984" dy="1064" grid="1" gridSize="10" guides="1" tooltips="1" connect="1" arrows="1" fold="1" page="1" pageScale="1" pageWidth="850" pageHeight="1100" math="0" shadow="0">
      <root>
        <mxCell id="0" />
        <mxCell id="1" parent="0" />
        <mxCell id="Qs2fwleG6ywqepCSHT3d-5" style="edgeStyle=orthogonalEdgeStyle;rounded=0;orthogonalLoop=1;jettySize=auto;html=1;" edge="1" parent="1" source="Qs2fwleG6ywqepCSHT3d-1" target="Qs2fwleG6ywqepCSHT3d-4">
          <mxGeometry relative="1" as="geometry" />
        </mxCell>
        <mxCell id="Qs2fwleG6ywqepCSHT3d-1" value="SJC&lt;br&gt;200 TNP cases&lt;br&gt;&lt;font color=&quot;#999900&quot;&gt;85% tested&lt;/font&gt;" style="shape=process;whiteSpace=wrap;html=1;backgroundOutline=1;" vertex="1" parent="1">
          <mxGeometry x="70" y="80" width="120" height="60" as="geometry" />
        </mxCell>
        <mxCell id="Qs2fwleG6ywqepCSHT3d-6" style="edgeStyle=orthogonalEdgeStyle;rounded=0;orthogonalLoop=1;jettySize=auto;html=1;entryX=0;entryY=0.5;entryDx=0;entryDy=0;" edge="1" parent="1" source="Qs2fwleG6ywqepCSHT3d-2" target="Qs2fwleG6ywqepCSHT3d-4">
          <mxGeometry relative="1" as="geometry" />
        </mxCell>
        <mxCell id="Qs2fwleG6ywqepCSHT3d-2" value="QDID&lt;br&gt;16 TNP cases&lt;br&gt;&lt;font color=&quot;#ff0000&quot;&gt;60% tested&lt;/font&gt;" style="shape=process;whiteSpace=wrap;html=1;backgroundOutline=1;" vertex="1" parent="1">
          <mxGeometry x="70" y="230" width="120" height="60" as="geometry" />
        </mxCell>
        <mxCell id="Qs2fwleG6ywqepCSHT3d-7" style="edgeStyle=orthogonalEdgeStyle;rounded=0;orthogonalLoop=1;jettySize=auto;html=1;entryX=0.5;entryY=1;entryDx=0;entryDy=0;" edge="1" parent="1" source="Qs2fwleG6ywqepCSHT3d-3" target="Qs2fwleG6ywqepCSHT3d-4">
          <mxGeometry relative="1" as="geometry" />
        </mxCell>
        <mxCell id="Qs2fwleG6ywqepCSHT3d-3" value="VAL&lt;br&gt;8 TNP cases&lt;br&gt;&lt;font color=&quot;#00cc00&quot;&gt;100% tested&lt;/font&gt;" style="shape=process;whiteSpace=wrap;html=1;backgroundOutline=1;" vertex="1" parent="1">
          <mxGeometry x="70" y="380" width="120" height="60" as="geometry" />
        </mxCell>
        <mxCell id="Qs2fwleG6ywqepCSHT3d-4" value="AMD" style="shape=process;whiteSpace=wrap;html=1;backgroundOutline=1;" vertex="1" parent="1">
          <mxGeometry x="470" y="230" width="120" height="60" as="geometry" />
        </mxCell>
        <mxCell id="Qs2fwleG6ywqepCSHT3d-8" value="" style="endArrow=none;dashed=1;html=1;dashPattern=1 3;strokeWidth=2;" edge="1" parent="1" target="Qs2fwleG6ywqepCSHT3d-3">
          <mxGeometry width="50" height="50" relative="1" as="geometry">
            <mxPoint x="130" y="620" as="sourcePoint" />
            <mxPoint x="440" y="470" as="targetPoint" />
          </mxGeometry>
        </mxCell>
        <mxCell id="Qs2fwleG6ywqepCSHT3d-11" style="edgeStyle=orthogonalEdgeStyle;rounded=0;orthogonalLoop=1;jettySize=auto;html=1;entryX=0.5;entryY=1;entryDx=0;entryDy=0;" edge="1" parent="1" source="Qs2fwleG6ywqepCSHT3d-9" target="Qs2fwleG6ywqepCSHT3d-4">
          <mxGeometry relative="1" as="geometry" />
        </mxCell>
        <mxCell id="Qs2fwleG6ywqepCSHT3d-9" value="Other sites&lt;br&gt;..." style="shape=process;whiteSpace=wrap;html=1;backgroundOutline=1;" vertex="1" parent="1">
          <mxGeometry x="70" y="620" width="120" height="60" as="geometry" />
        </mxCell>
      </root>
    </mxGraphModel>
  </diagram>
</mxfile>
